<mxfile host="app.diagrams.net" modified="2023-07-30T16:13:48.126Z" agent="Mozilla/5.0 (Windows NT 10.0; Win64; x64) AppleWebKit/537.36 (KHTML, like Gecko) Chrome/115.0.0.0 Safari/537.36" etag="AZDPTDwPeyudaSwNUWGr" version="21.6.6" type="device">
  <diagram name="Page-1" id="pgvO-jH7PHoVt-YxzpMe">
    <mxGraphModel dx="1195" dy="632" grid="1" gridSize="10" guides="1" tooltips="1" connect="1" arrows="1" fold="1" page="1" pageScale="1" pageWidth="850" pageHeight="1100" math="0" shadow="0">
      <root>
        <mxCell id="0" />
        <mxCell id="1" parent="0" />
        <mxCell id="QM7vnvy7jlmai9FDgtIz-5" style="edgeStyle=orthogonalEdgeStyle;rounded=0;orthogonalLoop=1;jettySize=auto;html=1;exitX=0.5;exitY=1;exitDx=0;exitDy=0;exitPerimeter=0;" edge="1" parent="1" source="QM7vnvy7jlmai9FDgtIz-1" target="QM7vnvy7jlmai9FDgtIz-4">
          <mxGeometry relative="1" as="geometry" />
        </mxCell>
        <mxCell id="QM7vnvy7jlmai9FDgtIz-1" value="" style="verticalLabelPosition=bottom;verticalAlign=top;html=1;shape=mxgraph.flowchart.on-page_reference;fillColor=#000000;" vertex="1" parent="1">
          <mxGeometry x="390" y="50" width="30" height="30" as="geometry" />
        </mxCell>
        <mxCell id="QM7vnvy7jlmai9FDgtIz-9" style="edgeStyle=orthogonalEdgeStyle;rounded=0;orthogonalLoop=1;jettySize=auto;html=1;exitX=0.5;exitY=1;exitDx=0;exitDy=0;exitPerimeter=0;entryX=0.5;entryY=0;entryDx=0;entryDy=0;entryPerimeter=0;" edge="1" parent="1" source="QM7vnvy7jlmai9FDgtIz-4" target="QM7vnvy7jlmai9FDgtIz-8">
          <mxGeometry relative="1" as="geometry" />
        </mxCell>
        <mxCell id="QM7vnvy7jlmai9FDgtIz-4" value="GitHub Action is triggered" style="strokeWidth=2;html=1;shape=mxgraph.flowchart.terminator;whiteSpace=wrap;" vertex="1" parent="1">
          <mxGeometry x="355" y="150" width="100" height="60" as="geometry" />
        </mxCell>
        <mxCell id="QM7vnvy7jlmai9FDgtIz-6" value="&lt;span style=&quot;color: rgb(0, 0, 0); font-family: Helvetica; font-size: 12px; font-style: normal; font-variant-ligatures: normal; font-variant-caps: normal; font-weight: 400; letter-spacing: normal; orphans: 2; text-align: center; text-indent: 0px; text-transform: none; widows: 2; word-spacing: 0px; -webkit-text-stroke-width: 0px; background-color: rgb(251, 251, 251); text-decoration-thickness: initial; text-decoration-style: initial; text-decoration-color: initial; float: none; display: inline !important;&quot;&gt;Push to GitHub/PR is created&lt;/span&gt;" style="text;whiteSpace=wrap;html=1;" vertex="1" parent="1">
          <mxGeometry x="290" y="90" width="110" height="40" as="geometry" />
        </mxCell>
        <mxCell id="QM7vnvy7jlmai9FDgtIz-12" value="" style="edgeStyle=orthogonalEdgeStyle;rounded=0;orthogonalLoop=1;jettySize=auto;html=1;" edge="1" parent="1" source="QM7vnvy7jlmai9FDgtIz-8" target="QM7vnvy7jlmai9FDgtIz-11">
          <mxGeometry relative="1" as="geometry" />
        </mxCell>
        <mxCell id="QM7vnvy7jlmai9FDgtIz-30" style="edgeStyle=orthogonalEdgeStyle;rounded=0;orthogonalLoop=1;jettySize=auto;html=1;exitX=1;exitY=0.5;exitDx=0;exitDy=0;exitPerimeter=0;entryX=1;entryY=0.5;entryDx=0;entryDy=0;" edge="1" parent="1" source="QM7vnvy7jlmai9FDgtIz-8" target="QM7vnvy7jlmai9FDgtIz-28">
          <mxGeometry relative="1" as="geometry">
            <mxPoint x="680" y="299.66666666666674" as="targetPoint" />
            <Array as="points">
              <mxPoint x="660" y="300" />
              <mxPoint x="660" y="1235" />
            </Array>
          </mxGeometry>
        </mxCell>
        <mxCell id="QM7vnvy7jlmai9FDgtIz-8" value="GitHub copies appropriate package-lock and env files" style="strokeWidth=2;html=1;shape=mxgraph.flowchart.terminator;whiteSpace=wrap;" vertex="1" parent="1">
          <mxGeometry x="337.5" y="270" width="135" height="60" as="geometry" />
        </mxCell>
        <mxCell id="QM7vnvy7jlmai9FDgtIz-14" value="" style="edgeStyle=orthogonalEdgeStyle;rounded=0;orthogonalLoop=1;jettySize=auto;html=1;" edge="1" parent="1" source="QM7vnvy7jlmai9FDgtIz-11" target="QM7vnvy7jlmai9FDgtIz-13">
          <mxGeometry relative="1" as="geometry" />
        </mxCell>
        <mxCell id="QM7vnvy7jlmai9FDgtIz-32" style="edgeStyle=orthogonalEdgeStyle;rounded=0;orthogonalLoop=1;jettySize=auto;html=1;" edge="1" parent="1" source="QM7vnvy7jlmai9FDgtIz-11">
          <mxGeometry relative="1" as="geometry">
            <mxPoint x="660" y="440" as="targetPoint" />
          </mxGeometry>
        </mxCell>
        <mxCell id="QM7vnvy7jlmai9FDgtIz-11" value="GitHub Actions builds and tags the images" style="strokeWidth=2;html=1;shape=mxgraph.flowchart.terminator;whiteSpace=wrap;" vertex="1" parent="1">
          <mxGeometry x="337.5" y="410" width="135" height="60" as="geometry" />
        </mxCell>
        <mxCell id="QM7vnvy7jlmai9FDgtIz-18" value="" style="edgeStyle=orthogonalEdgeStyle;rounded=0;orthogonalLoop=1;jettySize=auto;html=1;" edge="1" parent="1" source="QM7vnvy7jlmai9FDgtIz-13" target="QM7vnvy7jlmai9FDgtIz-17">
          <mxGeometry relative="1" as="geometry" />
        </mxCell>
        <mxCell id="QM7vnvy7jlmai9FDgtIz-34" style="edgeStyle=orthogonalEdgeStyle;rounded=0;orthogonalLoop=1;jettySize=auto;html=1;" edge="1" parent="1" source="QM7vnvy7jlmai9FDgtIz-13">
          <mxGeometry relative="1" as="geometry">
            <mxPoint x="660" y="580" as="targetPoint" />
          </mxGeometry>
        </mxCell>
        <mxCell id="QM7vnvy7jlmai9FDgtIz-13" value="GitHub Actions pushes the images to Dockerhub" style="strokeWidth=2;html=1;shape=mxgraph.flowchart.terminator;whiteSpace=wrap;" vertex="1" parent="1">
          <mxGeometry x="328.75" y="550" width="152.5" height="60" as="geometry" />
        </mxCell>
        <mxCell id="QM7vnvy7jlmai9FDgtIz-20" value="" style="edgeStyle=orthogonalEdgeStyle;rounded=0;orthogonalLoop=1;jettySize=auto;html=1;" edge="1" parent="1" source="QM7vnvy7jlmai9FDgtIz-17" target="QM7vnvy7jlmai9FDgtIz-19">
          <mxGeometry relative="1" as="geometry" />
        </mxCell>
        <mxCell id="QM7vnvy7jlmai9FDgtIz-17" value="The images are pulled by a user" style="strokeWidth=2;html=1;shape=mxgraph.flowchart.terminator;whiteSpace=wrap;" vertex="1" parent="1">
          <mxGeometry x="324.39" y="690" width="161.25" height="60" as="geometry" />
        </mxCell>
        <mxCell id="QM7vnvy7jlmai9FDgtIz-22" value="" style="edgeStyle=orthogonalEdgeStyle;rounded=0;orthogonalLoop=1;jettySize=auto;html=1;" edge="1" parent="1" source="QM7vnvy7jlmai9FDgtIz-19" target="QM7vnvy7jlmai9FDgtIz-21">
          <mxGeometry relative="1" as="geometry" />
        </mxCell>
        <mxCell id="QM7vnvy7jlmai9FDgtIz-37" style="edgeStyle=orthogonalEdgeStyle;rounded=0;orthogonalLoop=1;jettySize=auto;html=1;exitX=1;exitY=0.5;exitDx=0;exitDy=0;exitPerimeter=0;" edge="1" parent="1" source="QM7vnvy7jlmai9FDgtIz-19">
          <mxGeometry relative="1" as="geometry">
            <mxPoint x="660" y="859.6666666666667" as="targetPoint" />
          </mxGeometry>
        </mxCell>
        <mxCell id="QM7vnvy7jlmai9FDgtIz-19" value="The images are tagged and pushed to Google Cloud Run" style="strokeWidth=2;html=1;shape=mxgraph.flowchart.terminator;whiteSpace=wrap;" vertex="1" parent="1">
          <mxGeometry x="314.38" y="830" width="181.25" height="60" as="geometry" />
        </mxCell>
        <mxCell id="QM7vnvy7jlmai9FDgtIz-26" value="" style="edgeStyle=orthogonalEdgeStyle;rounded=0;orthogonalLoop=1;jettySize=auto;html=1;" edge="1" parent="1" source="QM7vnvy7jlmai9FDgtIz-21" target="QM7vnvy7jlmai9FDgtIz-25">
          <mxGeometry relative="1" as="geometry" />
        </mxCell>
        <mxCell id="QM7vnvy7jlmai9FDgtIz-21" value="Manual Testing is performed on the deployed services to ensure functionality" style="strokeWidth=2;html=1;shape=mxgraph.flowchart.terminator;whiteSpace=wrap;" vertex="1" parent="1">
          <mxGeometry x="286.11" y="970" width="237.8" height="60" as="geometry" />
        </mxCell>
        <mxCell id="QM7vnvy7jlmai9FDgtIz-29" style="edgeStyle=orthogonalEdgeStyle;rounded=0;orthogonalLoop=1;jettySize=auto;html=1;entryX=0.5;entryY=0;entryDx=0;entryDy=0;" edge="1" parent="1" source="QM7vnvy7jlmai9FDgtIz-25" target="QM7vnvy7jlmai9FDgtIz-28">
          <mxGeometry relative="1" as="geometry" />
        </mxCell>
        <mxCell id="QM7vnvy7jlmai9FDgtIz-25" value="Deployment finished" style="strokeWidth=2;html=1;shape=mxgraph.flowchart.terminator;whiteSpace=wrap;" vertex="1" parent="1">
          <mxGeometry x="292.2" y="1110" width="225.62" height="60" as="geometry" />
        </mxCell>
        <mxCell id="QM7vnvy7jlmai9FDgtIz-28" value="" style="ellipse;html=1;shape=endState;fillColor=#000000;strokeColor=#ff0000;" vertex="1" parent="1">
          <mxGeometry x="390" y="1220" width="30" height="30" as="geometry" />
        </mxCell>
        <mxCell id="QM7vnvy7jlmai9FDgtIz-31" value="Error in Copying" style="text;html=1;align=center;verticalAlign=middle;resizable=0;points=[];autosize=1;strokeColor=none;fillColor=none;" vertex="1" parent="1">
          <mxGeometry x="495.63" y="258" width="110" height="30" as="geometry" />
        </mxCell>
        <mxCell id="QM7vnvy7jlmai9FDgtIz-33" value="Error in Building" style="text;html=1;align=center;verticalAlign=middle;resizable=0;points=[];autosize=1;strokeColor=none;fillColor=none;" vertex="1" parent="1">
          <mxGeometry x="495.63" y="400" width="110" height="30" as="geometry" />
        </mxCell>
        <mxCell id="QM7vnvy7jlmai9FDgtIz-35" value="Error in Pushing" style="text;html=1;align=center;verticalAlign=middle;resizable=0;points=[];autosize=1;strokeColor=none;fillColor=none;" vertex="1" parent="1">
          <mxGeometry x="505.63" y="540" width="110" height="30" as="geometry" />
        </mxCell>
        <mxCell id="QM7vnvy7jlmai9FDgtIz-38" value="Errors in pushing (permission issues)" style="text;html=1;align=center;verticalAlign=middle;resizable=0;points=[];autosize=1;strokeColor=none;fillColor=none;" vertex="1" parent="1">
          <mxGeometry x="490" y="830" width="220" height="30" as="geometry" />
        </mxCell>
        <mxCell id="QM7vnvy7jlmai9FDgtIz-40" value="CI/CD Architecture" style="text;html=1;align=center;verticalAlign=middle;resizable=0;points=[];autosize=1;strokeColor=none;fillColor=none;fontSize=16;fontStyle=1" vertex="1" parent="1">
          <mxGeometry y="1468" width="170" height="30" as="geometry" />
        </mxCell>
        <mxCell id="QM7vnvy7jlmai9FDgtIz-47" style="edgeStyle=orthogonalEdgeStyle;rounded=0;orthogonalLoop=1;jettySize=auto;html=1;" edge="1" parent="1" source="QM7vnvy7jlmai9FDgtIz-46">
          <mxGeometry relative="1" as="geometry">
            <mxPoint x="290" y="1585" as="targetPoint" />
          </mxGeometry>
        </mxCell>
        <mxCell id="QM7vnvy7jlmai9FDgtIz-46" value="GitHub Actions" style="html=1;whiteSpace=wrap;" vertex="1" parent="1">
          <mxGeometry x="80" y="1560" width="110" height="50" as="geometry" />
        </mxCell>
        <mxCell id="QM7vnvy7jlmai9FDgtIz-50" value="" style="edgeStyle=orthogonalEdgeStyle;rounded=0;orthogonalLoop=1;jettySize=auto;html=1;" edge="1" parent="1" source="QM7vnvy7jlmai9FDgtIz-48" target="QM7vnvy7jlmai9FDgtIz-49">
          <mxGeometry relative="1" as="geometry" />
        </mxCell>
        <mxCell id="QM7vnvy7jlmai9FDgtIz-48" value="Dockerhub" style="html=1;whiteSpace=wrap;" vertex="1" parent="1">
          <mxGeometry x="290" y="1560" width="110" height="50" as="geometry" />
        </mxCell>
        <mxCell id="QM7vnvy7jlmai9FDgtIz-52" value="" style="edgeStyle=orthogonalEdgeStyle;rounded=0;orthogonalLoop=1;jettySize=auto;html=1;" edge="1" parent="1" source="QM7vnvy7jlmai9FDgtIz-49" target="QM7vnvy7jlmai9FDgtIz-51">
          <mxGeometry relative="1" as="geometry" />
        </mxCell>
        <mxCell id="QM7vnvy7jlmai9FDgtIz-49" value="Google Cloud Run" style="html=1;whiteSpace=wrap;" vertex="1" parent="1">
          <mxGeometry x="480" y="1560" width="110" height="50" as="geometry" />
        </mxCell>
        <mxCell id="QM7vnvy7jlmai9FDgtIz-51" value="Postman" style="html=1;whiteSpace=wrap;" vertex="1" parent="1">
          <mxGeometry x="670" y="1560" width="110" height="50" as="geometry" />
        </mxCell>
      </root>
    </mxGraphModel>
  </diagram>
</mxfile>
